<svg 
 xmlns="http://www.w3.org/2000/svg"
 xmlns:xlink="http://www.w3.org/1999/xlink"
 width="131px" height="54px">
<path fill-rule="evenodd"  fill="rgb(34, 34, 34)"
 d="M130.100,33.314 C129.800,33.614 129.460,33.904 129.080,34.184 C128.700,34.464 128.410,34.664 128.210,34.784 C127.250,35.224 126.300,35.564 125.360,35.804 C124.420,36.044 123.530,36.384 122.690,36.824 C122.330,37.464 121.830,38.314 121.190,39.374 C120.550,40.434 119.840,41.464 119.060,42.464 C118.280,43.464 117.460,44.324 116.600,45.044 C115.740,45.764 114.910,46.124 114.110,46.124 C112.990,46.124 112.030,45.804 111.230,45.164 C110.630,44.764 110.180,44.144 109.880,43.304 C109.580,42.464 109.400,41.554 109.340,40.574 C109.306,40.015 109.309,39.464 109.334,38.918 C108.900,39.507 108.477,40.090 108.021,40.694 C107.280,41.674 106.570,42.574 105.891,43.394 C105.210,44.214 104.670,44.804 104.271,45.164 C103.791,45.724 103.270,46.244 102.711,46.724 C102.510,46.883 102.240,47.024 101.901,47.144 C101.560,47.264 101.211,47.354 100.851,47.414 C100.491,47.474 100.140,47.483 99.801,47.444 C99.460,47.403 99.190,47.303 98.991,47.144 C98.310,46.703 97.781,46.173 97.401,45.554 C97.021,44.934 96.831,44.264 96.831,43.544 C96.791,42.814 96.798,42.077 96.826,41.337 C96.401,41.719 95.959,42.118 95.481,42.554 C94.140,43.774 92.741,44.904 91.281,45.944 C89.820,46.983 88.391,47.774 86.991,48.314 C85.590,48.854 84.390,48.863 83.391,48.344 C82.470,47.864 81.821,47.093 81.441,46.034 C81.060,44.974 80.850,43.814 80.811,42.554 C80.771,41.294 80.820,40.054 80.961,38.834 C81.101,37.614 81.231,36.644 81.351,35.924 C81.270,36.004 81.201,36.114 81.141,36.254 C81.081,36.394 81.011,36.524 80.931,36.644 C80.370,37.284 79.731,38.054 79.011,38.954 C78.291,39.854 77.501,40.684 76.641,41.444 C75.780,42.204 74.871,42.784 73.911,43.184 C72.951,43.584 71.970,43.604 70.971,43.244 C70.411,42.924 69.921,42.534 69.501,42.074 C69.353,41.912 69.241,41.725 69.145,41.526 C69.009,41.714 68.876,41.891 68.751,42.044 C67.911,42.964 67.121,43.774 66.381,44.474 C65.641,45.174 64.751,45.804 63.711,46.364 C63.231,46.604 62.701,46.814 62.121,46.994 C61.541,47.174 60.961,47.264 60.381,47.264 C59.801,47.264 59.251,47.163 58.731,46.964 C58.211,46.763 57.771,46.403 57.411,45.884 C56.771,45.084 56.421,44.134 56.361,43.034 C56.301,41.934 56.491,40.804 56.931,39.644 C56.851,39.724 56.731,39.844 56.571,40.004 C56.411,40.164 56.231,40.344 56.031,40.544 C55.831,40.744 55.641,40.934 55.461,41.114 C55.281,41.294 55.151,41.404 55.071,41.444 C54.471,42.044 53.871,42.564 53.271,43.004 C52.671,43.444 52.051,43.824 51.411,44.144 C50.891,44.384 50.441,44.524 50.061,44.564 C49.681,44.604 49.331,44.534 49.011,44.354 C48.691,44.174 48.381,43.904 48.081,43.544 C47.781,43.184 47.451,42.764 47.091,42.284 C46.677,41.709 46.368,41.143 46.118,40.581 C45.961,40.840 45.821,41.083 45.652,41.354 C44.892,42.574 44.052,43.834 43.132,45.134 C42.211,46.433 41.221,47.643 40.162,48.764 C39.102,49.883 38.022,50.864 36.922,51.704 C35.821,52.544 34.711,53.084 33.592,53.324 C32.592,53.564 31.672,53.693 30.832,53.714 C29.992,53.733 29.252,53.423 28.612,52.784 C28.012,52.184 27.673,51.323 27.592,50.204 C27.512,49.083 27.562,47.894 27.742,46.634 C27.922,45.374 28.172,44.154 28.492,42.974 C28.813,41.794 29.072,40.884 29.272,40.244 C29.912,38.164 30.522,36.114 31.102,34.094 C31.681,32.074 32.251,30.044 32.812,28.004 C33.412,26.204 33.961,24.354 34.462,22.454 C34.962,20.554 35.472,18.844 35.992,17.324 C35.191,17.284 34.372,17.254 33.532,17.234 C32.692,17.214 31.852,17.194 31.012,17.174 C30.172,17.154 29.342,17.104 28.522,17.024 C27.703,16.944 26.932,16.804 26.212,16.604 C25.573,16.444 25.102,16.184 24.802,15.824 C24.502,15.464 24.362,15.104 24.382,14.744 C24.403,14.384 24.602,14.074 24.982,13.814 C25.363,13.554 25.912,13.424 26.632,13.424 C27.073,13.424 27.793,13.464 28.792,13.544 C29.792,13.624 30.841,13.684 31.942,13.724 C33.042,13.764 34.062,13.774 35.002,13.754 C35.941,13.734 36.552,13.664 36.832,13.544 C36.952,13.504 37.012,13.444 37.012,13.364 C37.252,12.644 37.512,11.884 37.792,11.084 C38.071,10.284 38.352,9.504 38.632,8.744 C38.911,7.984 39.181,7.264 39.442,6.584 C39.702,5.904 39.931,5.324 40.132,4.844 C40.291,4.484 40.621,4.334 41.122,4.394 C41.622,4.454 42.142,4.624 42.682,4.904 C43.222,5.184 43.692,5.534 44.092,5.954 C44.491,6.374 44.671,6.764 44.632,7.124 C44.512,8.164 44.232,9.184 43.792,10.184 C43.351,11.184 42.972,12.324 42.652,13.604 C45.172,13.564 47.341,13.534 49.162,13.514 C50.982,13.494 52.752,13.484 54.472,13.484 C55.032,13.484 55.591,13.494 56.152,13.514 C56.712,13.534 57.142,13.584 57.442,13.664 C57.742,13.744 57.811,13.854 57.652,13.994 C57.492,14.134 56.971,14.324 56.092,14.564 C53.572,15.364 51.132,15.974 48.772,16.394 C46.411,16.814 44.092,17.124 41.812,17.324 C41.611,17.364 41.521,17.404 41.542,17.444 C41.562,17.484 41.512,17.604 41.392,17.804 C41.392,17.844 41.371,17.884 41.332,17.924 C41.292,17.964 41.272,18.004 41.272,18.044 C40.632,19.804 39.931,21.784 39.172,23.984 C38.412,26.184 37.651,28.444 36.892,30.764 C36.132,33.084 35.412,35.364 34.732,37.604 C34.051,39.844 33.472,41.874 32.992,43.694 C32.512,45.514 32.161,47.033 31.942,48.254 C31.722,49.473 31.711,50.223 31.912,50.504 C32.152,51.263 32.641,51.503 33.382,51.224 C34.122,50.943 34.981,50.343 35.962,49.424 C36.942,48.503 37.972,47.384 39.052,46.064 C40.132,44.744 41.161,43.444 42.142,42.164 C43.122,40.884 43.972,39.724 44.692,38.684 C45.404,37.656 45.879,36.982 46.122,36.657 C46.166,36.533 46.194,36.399 46.251,36.284 C46.491,35.604 46.781,34.824 47.121,33.944 C47.461,33.064 47.811,32.184 48.171,31.304 C48.531,30.424 48.881,29.594 49.221,28.814 C49.561,28.034 49.851,27.404 50.091,26.924 C50.371,26.204 50.791,25.844 51.351,25.844 C51.911,25.844 52.421,26.064 52.881,26.504 C53.341,26.944 53.691,27.524 53.931,28.244 C54.171,28.964 54.111,29.664 53.751,30.344 C53.551,30.824 53.251,31.504 52.851,32.384 C52.451,33.264 52.041,34.174 51.621,35.114 C51.201,36.054 50.831,36.944 50.511,37.784 C50.191,38.624 50.011,39.244 49.971,39.644 C49.971,40.524 50.141,40.984 50.481,41.024 C50.821,41.064 51.281,40.844 51.861,40.364 C52.441,39.884 53.081,39.214 53.781,38.354 C54.481,37.494 55.191,36.584 55.911,35.624 C56.631,34.664 57.301,33.734 57.921,32.834 C58.541,31.934 59.071,31.204 59.511,30.644 C60.071,29.644 60.541,28.754 60.921,27.974 C61.301,27.194 61.871,26.424 62.631,25.664 C63.031,25.504 63.511,25.534 64.071,25.754 C64.631,25.974 65.131,26.304 65.571,26.744 C66.011,27.184 66.321,27.674 66.501,28.214 C66.681,28.754 66.631,29.224 66.351,29.624 C65.631,30.544 64.981,31.324 64.401,31.964 C63.821,32.604 63.271,33.424 62.751,34.424 C62.471,35.064 62.151,35.774 61.791,36.554 C61.431,37.334 61.101,38.134 60.801,38.954 C60.501,39.774 60.261,40.574 60.081,41.354 C59.901,42.134 59.851,42.824 59.931,43.424 C59.931,44.104 60.271,44.384 60.951,44.264 C61.911,44.104 62.971,43.594 64.131,42.734 C65.291,41.874 66.431,40.894 67.551,39.794 C68.074,39.280 68.576,38.772 69.064,38.267 C69.207,37.432 69.418,36.592 69.741,35.744 C70.321,34.224 71.111,32.874 72.111,31.694 C73.110,30.514 74.291,29.574 75.651,28.874 C77.010,28.174 78.471,27.884 80.031,28.004 C80.471,28.084 80.921,28.194 81.381,28.334 C81.840,28.474 82.230,28.724 82.551,29.084 L82.791,29.324 C82.791,29.244 82.811,29.184 82.851,29.144 C82.851,29.104 82.871,29.084 82.911,29.084 C84.150,26.444 85.380,23.894 86.601,21.434 C87.821,18.974 89.061,16.604 90.321,14.324 C91.581,12.044 92.901,9.844 94.281,7.724 C95.661,5.604 97.131,3.544 98.691,1.544 C99.570,0.544 100.281,0.104 100.821,0.224 C101.361,0.344 101.760,0.754 102.021,1.454 C102.281,2.154 102.431,2.984 102.471,3.944 C102.510,4.904 102.491,5.684 102.411,6.284 C101.811,8.764 101.001,11.244 99.981,13.724 C98.961,16.204 97.811,18.674 96.531,21.134 C95.250,23.594 93.870,26.044 92.391,28.484 C90.911,30.924 89.411,33.364 87.891,35.804 C87.690,36.044 87.540,36.294 87.441,36.554 C87.341,36.814 87.251,37.104 87.171,37.424 C87.090,37.784 87.000,38.294 86.901,38.954 C86.801,39.614 86.741,40.304 86.721,41.024 C86.700,41.744 86.751,42.404 86.871,43.004 C86.991,43.604 87.210,43.984 87.531,44.144 C88.011,44.384 88.710,44.334 89.631,43.994 C90.551,43.654 91.530,43.144 92.571,42.464 C93.611,41.784 94.661,41.004 95.721,40.124 C96.190,39.735 96.618,39.356 97.028,38.983 C97.124,38.258 97.241,37.529 97.401,36.794 C97.901,34.494 98.490,32.404 99.171,30.524 C99.370,29.964 99.651,29.384 100.011,28.784 C100.371,28.424 100.791,28.324 101.271,28.484 C101.751,28.644 102.180,28.974 102.561,29.474 C102.940,29.974 103.221,30.584 103.401,31.304 C103.581,32.024 103.551,32.744 103.311,33.464 C103.110,34.144 102.930,34.794 102.771,35.414 C102.610,36.034 102.430,36.684 102.231,37.364 C102.150,37.684 102.021,38.144 101.841,38.744 C101.661,39.344 101.470,39.974 101.271,40.634 C101.070,41.294 100.890,41.924 100.731,42.524 C100.570,43.124 100.470,43.584 100.431,43.904 C100.350,44.504 100.510,44.664 100.911,44.384 C101.310,44.104 101.850,43.624 102.531,42.944 C104.170,41.264 105.730,39.634 107.211,38.054 C108.121,37.081 109.011,36.097 109.907,35.117 C109.942,34.985 109.981,34.876 110.030,34.814 C110.111,34.714 110.191,34.644 110.270,34.604 C110.325,34.577 110.390,34.550 110.453,34.522 C110.585,34.378 110.719,34.234 110.851,34.090 C110.957,33.695 111.064,33.290 111.170,32.864 C111.290,32.384 111.470,31.944 111.710,31.544 C112.390,30.344 113.260,29.234 114.320,28.214 C115.380,27.194 116.610,26.604 118.010,26.444 C118.890,26.284 119.700,26.324 120.440,26.564 C121.180,26.804 121.830,27.264 122.390,27.944 C122.870,28.464 123.210,29.034 123.410,29.654 C123.610,30.274 123.730,30.874 123.770,31.454 C123.810,32.034 123.790,32.564 123.710,33.044 C123.630,33.524 123.570,33.884 123.530,34.124 C124.010,34.084 124.530,33.964 125.090,33.764 C125.650,33.564 126.170,33.404 126.650,33.284 C127.210,33.124 127.800,32.934 128.420,32.714 C129.040,32.494 129.630,32.324 130.190,32.204 C130.590,32.204 130.750,32.314 130.670,32.534 C130.590,32.754 130.400,33.014 130.100,33.314 ZM79.161,32.054 C78.180,32.354 77.261,32.854 76.401,33.554 C75.540,34.254 74.820,35.054 74.241,35.954 C73.661,36.854 73.371,37.664 73.371,38.384 L73.491,38.564 C74.850,37.484 76.221,36.414 77.601,35.354 C78.981,34.294 80.411,33.244 81.891,32.204 C81.051,31.804 80.141,31.754 79.161,32.054 ZM91.701,27.284 C92.961,25.124 94.191,22.914 95.391,20.654 C96.591,18.394 97.650,16.194 98.571,14.054 C99.491,11.914 100.071,10.044 100.311,8.444 C97.791,12.324 95.550,16.304 93.591,20.384 C91.631,24.464 89.910,28.684 88.431,33.044 C89.351,31.364 90.441,29.444 91.701,27.284 ZM114.290,37.664 C114.170,38.024 114.090,38.494 114.050,39.074 C114.010,39.654 114.010,40.254 114.050,40.874 C114.090,41.494 114.170,42.084 114.290,42.644 C114.410,43.204 114.570,43.644 114.770,43.964 C115.170,43.884 115.620,43.594 116.120,43.094 C116.620,42.594 117.100,42.024 117.560,41.384 C118.020,40.744 118.420,40.094 118.760,39.434 C119.100,38.774 119.330,38.224 119.450,37.784 C118.650,37.864 117.790,37.904 116.870,37.904 C115.950,37.904 115.090,37.824 114.290,37.664 ZM120.050,29.624 C119.770,29.304 119.410,29.124 118.970,29.084 C118.530,29.044 118.110,29.124 117.710,29.324 C116.910,29.804 116.270,30.364 115.790,31.004 C115.310,31.644 114.850,32.304 114.410,32.984 C114.410,33.184 114.450,33.324 114.530,33.404 C114.930,33.764 115.110,34.164 115.070,34.604 C115.070,34.804 115.300,34.924 115.760,34.964 C116.220,35.004 116.740,35.014 117.320,34.994 C117.900,34.974 118.460,34.924 119.000,34.844 C119.540,34.764 119.910,34.724 120.110,34.724 C120.190,34.724 120.270,34.684 120.350,34.604 C120.430,34.524 120.470,34.444 120.470,34.364 C120.790,33.604 120.940,32.764 120.920,31.844 C120.900,30.924 120.610,30.184 120.050,29.624 ZM103.191,26.084 C102.910,26.364 102.711,26.364 102.591,26.084 C102.070,25.284 101.730,24.444 101.571,23.564 C101.410,22.684 101.490,21.804 101.811,20.924 C101.970,20.404 102.321,19.974 102.861,19.634 C103.401,19.294 103.890,19.184 104.331,19.304 C104.571,19.384 104.830,19.514 105.111,19.694 C105.390,19.874 105.570,20.084 105.651,20.324 C105.930,21.404 105.780,22.444 105.201,23.444 C104.620,24.444 103.950,25.324 103.191,26.084 ZM25.463,12.554 C24.882,13.534 24.212,14.434 23.453,15.254 C22.692,16.074 21.972,16.704 21.293,17.144 C20.972,17.384 20.633,17.564 20.273,17.684 C19.913,17.804 19.572,17.884 19.253,17.924 C18.932,17.964 18.683,17.944 18.503,17.864 C18.323,17.784 18.272,17.664 18.353,17.504 C18.833,16.664 19.343,15.724 19.883,14.684 C20.423,13.644 20.933,12.614 21.413,11.594 C21.893,10.574 22.292,9.624 22.613,8.744 C22.932,7.864 23.132,7.164 23.213,6.644 C23.292,6.204 23.183,5.964 22.883,5.924 C22.583,5.884 22.212,5.924 21.773,6.044 C21.012,6.284 20.102,6.664 19.043,7.184 C17.982,7.704 16.943,8.294 15.923,8.954 C14.903,9.614 14.003,10.314 13.223,11.054 C12.443,11.794 11.972,12.484 11.813,13.124 C11.612,13.524 11.562,13.904 11.663,14.264 C11.762,14.624 11.922,14.954 12.143,15.254 C12.362,15.554 12.623,15.814 12.923,16.034 C13.223,16.254 13.493,16.444 13.733,16.604 C14.813,17.284 15.893,17.874 16.973,18.374 C18.053,18.874 19.103,19.394 20.123,19.934 C21.143,20.474 22.133,21.054 23.093,21.674 C24.053,22.294 24.953,23.044 25.793,23.924 C27.072,25.284 27.882,26.784 28.223,28.424 C28.562,30.064 28.452,31.684 27.893,33.284 C27.252,35.284 26.183,37.254 24.683,39.194 C23.183,41.134 21.452,42.844 19.493,44.324 C17.532,45.804 15.482,46.943 13.343,47.744 C11.202,48.543 9.192,48.824 7.313,48.584 C5.393,48.303 3.833,47.663 2.633,46.664 C1.433,45.664 0.632,44.264 0.233,42.464 C-0.087,40.864 -0.067,39.344 0.293,37.904 C0.653,36.464 1.253,35.144 2.093,33.944 C2.933,32.744 3.932,31.664 5.093,30.704 C6.252,29.744 7.472,28.964 8.753,28.364 C9.512,27.964 10.292,27.654 11.093,27.434 C11.892,27.214 12.692,27.044 13.493,26.924 C14.252,26.764 14.633,26.794 14.633,27.014 C14.633,27.234 14.453,27.524 14.093,27.884 C13.733,28.244 13.302,28.614 12.803,28.994 C12.302,29.374 11.972,29.624 11.813,29.744 C10.332,30.784 8.952,32.054 7.673,33.554 C6.392,35.054 5.352,36.554 4.553,38.054 C3.752,39.554 3.282,40.924 3.143,42.164 C3.002,43.404 3.353,44.284 4.193,44.804 C4.872,45.244 5.832,45.274 7.073,44.894 C8.312,44.514 9.653,43.874 11.093,42.974 C12.533,42.074 14.003,40.994 15.503,39.734 C17.003,38.474 18.372,37.184 19.613,35.864 C20.852,34.544 21.872,33.274 22.673,32.054 C23.472,30.834 23.912,29.804 23.993,28.964 C24.113,28.084 23.933,27.334 23.453,26.714 C22.973,26.094 22.302,25.554 21.443,25.094 C20.582,24.634 19.613,24.234 18.533,23.894 C17.453,23.554 16.362,23.234 15.263,22.934 C14.162,22.634 13.112,22.324 12.113,22.004 C11.112,21.684 10.272,21.304 9.593,20.864 C8.832,20.384 8.232,19.814 7.793,19.154 C7.352,18.494 7.032,17.804 6.833,17.084 C6.632,16.364 6.542,15.624 6.563,14.864 C6.582,14.104 6.692,13.384 6.893,12.704 C7.212,11.384 7.943,10.104 9.083,8.864 C10.223,7.624 11.532,6.534 13.013,5.594 C14.492,4.654 16.032,3.934 17.633,3.434 C19.232,2.934 20.672,2.764 21.953,2.924 C23.153,3.124 24.152,3.464 24.953,3.944 C25.752,4.424 26.352,5.244 26.753,6.404 C27.032,7.364 27.032,8.384 26.753,9.464 C26.472,10.544 26.042,11.574 25.463,12.554 Z"/>
</svg>